<svg width="888" height="467" viewBox="0 0 888 467" fill="none" xmlns="http://www.w3.org/2000/svg">
<path d="M120.159 62.472H125.631V60.024H120.159V56.76H126.087V54.24H117.159V69.024H118.695C122.007 69.024 124.191 68.976 126.735 68.544L126.447 66C124.383 66.312 122.607 66.408 120.159 66.432V62.472ZM132.375 51.936V60.504H130.599V52.296H127.647V73.08H130.599V63.048H132.375V74.064H135.375V51.936H132.375ZM141.757 58.536C141.757 56.832 142.981 55.824 144.661 55.824C146.317 55.824 147.565 56.832 147.565 58.536C147.565 60.216 146.317 61.224 144.661 61.224C142.981 61.224 141.757 60.216 141.757 58.536ZM150.637 58.536C150.637 55.392 148.045 53.16 144.661 53.16C141.253 53.16 138.661 55.392 138.661 58.536C138.661 61.632 141.253 63.888 144.661 63.888C148.045 63.888 150.637 61.632 150.637 58.536ZM148.669 71.592C145.837 71.592 144.325 70.992 144.325 69.696C144.325 68.424 145.837 67.8 148.669 67.8C151.477 67.8 152.989 68.424 152.989 69.696C152.989 70.992 151.477 71.592 148.669 71.592ZM148.669 65.328C144.085 65.328 141.181 66.96 141.181 69.696C141.181 72.456 144.085 74.064 148.669 74.064C153.229 74.064 156.133 72.456 156.133 69.696C156.133 66.96 153.229 65.328 148.669 65.328ZM158.725 57.264V54.672H155.893V51.96H152.725V64.848H155.893V62.064H158.725V59.472H155.893V57.264H158.725ZM172.379 60.408C172.883 58.008 172.883 56.064 172.883 54.6V53.16H161.555V55.68H169.763C169.739 56.904 169.643 58.344 169.307 60.168L172.379 60.408ZM173.843 61.416C171.779 61.656 169.571 61.8 167.387 61.896V58.104H164.291V61.968C162.875 61.992 161.507 61.992 160.259 61.992L160.571 64.512C164.507 64.512 169.499 64.416 174.035 63.672L173.843 61.416ZM170.771 71.568C167.891 71.568 166.331 71.04 166.331 69.864C166.331 68.688 167.891 68.136 170.771 68.136C173.603 68.136 175.163 68.688 175.163 69.864C175.163 71.04 173.603 71.568 170.771 71.568ZM170.771 65.688C166.043 65.688 163.091 67.248 163.091 69.864C163.091 72.48 166.043 74.04 170.771 74.04C175.451 74.04 178.403 72.48 178.403 69.864C178.403 67.248 175.451 65.688 170.771 65.688ZM178.211 57.384V51.96H175.043V65.448H178.211V60H180.875V57.384H178.211Z" fill="white"/>
<path d="M721.408 52.288H716.464V49.936H713.272V52.288H708.376V54.76H721.384L721.408 52.288ZM712.48 59.8C712.48 58.6 713.464 57.952 714.88 57.952C716.272 57.952 717.28 58.6 717.28 59.8C717.28 61.024 716.272 61.672 714.88 61.672C713.464 61.672 712.48 61.024 712.48 59.8ZM720.304 59.8C720.304 57.304 718.048 55.552 714.88 55.552C711.712 55.552 709.456 57.304 709.456 59.8C709.456 62.344 711.712 64.072 714.88 64.072C718.048 64.072 720.304 62.344 720.304 59.8ZM714.688 65.272H711.52V71.68H726.568V69.16H714.688V65.272ZM725.776 56.704V49.96H722.608V66.496H725.776V59.32H728.704V56.704H725.776ZM750.47 61.048V58.528H747.686C748.118 56.176 748.118 54.328 748.118 52.672V50.896H732.926V53.44H744.998C744.998 54.904 744.926 56.512 744.518 58.528H730.454V61.048H738.854V64.168H732.47V66.664H744.974V72.064H748.166V64.168H742.022V61.048H750.47ZM764.388 55.672V58.24H767.844V66.088H771.012V49.96H767.844V55.672H764.388ZM765.852 60.76C762.372 59.584 760.86 56.872 760.86 54.256V53.968H765.156V51.448H753.276V53.968H757.62V54.28C757.62 57.064 756.036 59.968 752.412 61.144L754.02 63.664C756.588 62.8 758.316 61.048 759.3 58.864C760.26 60.856 761.892 62.44 764.316 63.232L765.852 60.76ZM759.612 69.16V64.744H756.444V71.68H771.516V69.16H759.612ZM785.89 59.968C783.706 60.376 781.762 60.472 778.594 60.496V58.192H785.098V51.208H775.426V53.752H781.978V55.84H775.45V63.04H777.154C781.354 63.04 783.634 62.968 786.202 62.488L785.89 59.968ZM777.97 67.096H789.922V72.088H793.09V64.576H777.97V67.096ZM789.922 49.984V53.008H786.37V55.552H789.922V57.736H786.37V60.256H789.922V63.592H793.09V49.96L789.922 49.984Z" fill="white"/>
<path d="M312.68 207H316.232V200.688H318.608C322.424 200.688 325.472 198.864 325.472 194.808C325.472 190.608 322.448 189.216 318.512 189.216H312.68V207ZM316.232 197.88V192.048H318.248C320.696 192.048 321.992 192.744 321.992 194.808C321.992 196.848 320.816 197.88 318.368 197.88H316.232ZM335.936 207.336C338.24 207.336 340.136 206.424 341.6 204.72L339.728 202.512C338.768 203.544 337.592 204.264 336.056 204.264C333.248 204.264 331.424 201.936 331.424 198.072C331.424 194.256 333.44 191.952 336.128 191.952C337.472 191.952 338.504 192.576 339.416 193.44L341.264 191.184C340.112 189.984 338.312 188.904 336.056 188.904C331.568 188.904 327.8 192.336 327.8 198.192C327.8 204.12 331.448 207.336 335.936 207.336ZM349.015 207.336C353.119 207.336 355.543 204.864 355.543 201.96C355.543 199.392 354.127 198.024 351.967 197.136L349.639 196.152C348.127 195.552 346.879 195.096 346.879 193.824C346.879 192.648 347.863 191.952 349.423 191.952C350.887 191.952 352.063 192.48 353.191 193.416L354.991 191.184C353.551 189.72 351.487 188.904 349.423 188.904C345.823 188.904 343.279 191.136 343.279 194.04C343.279 196.632 345.079 198.072 346.879 198.816L349.255 199.824C350.839 200.496 351.919 200.904 351.919 202.224C351.919 203.472 350.935 204.264 349.087 204.264C347.527 204.264 345.847 203.472 344.575 202.296L342.535 204.744C344.263 206.4 346.639 207.336 349.015 207.336Z" fill="white"/>
<path d="M382.125 201.125H377.625M377.625 201.125C377.625 201.125 381.375 206.375 387 206.375C392.178 206.375 396.375 202.625 396.375 198.125M377.625 201.125V206.375M391.875 192.875H396.375M396.375 192.875C396.375 192.875 392.625 187.625 387 187.625C381.822 187.625 377.625 191.375 377.625 195.875M396.375 192.875V187.625" stroke="white" stroke-width="2" stroke-linecap="round" stroke-linejoin="round"/>
<path d="M122.847 340.312H120.015V335.368H122.847V340.312ZM122.847 332.896H120.015V327.904H117.039V342.832H125.751V327.904H122.847V332.896ZM132.375 325.936V334.384H130.527V326.296H127.575V347.08H130.527V336.928H132.375V348.04H135.375V325.936H132.375ZM142.645 336.424H148.981V333.952H142.645V330.352H149.725V327.808H139.501V343.096H141.301C145.021 343.096 147.853 343.024 151.045 342.52L150.757 339.976C148.045 340.408 145.621 340.528 142.645 340.552V336.424ZM153.877 325.936V333.736H150.085V336.28H153.877V348.112H157.045V325.936H153.877ZM164.987 336.376H172.163V327.832H161.723V330.352H168.923V333.88H161.747V342.976H163.739C167.747 342.976 170.987 342.832 174.587 342.208L174.251 339.64C171.131 340.168 168.347 340.336 164.987 340.36V336.376ZM175.787 325.936V348.112H178.955V325.936H175.787Z" fill="white"/>
<rect x="210" y="52" width="480" height="20" fill="#C4B9AA" fill-opacity="0.3"/>
<rect x="440" y="326" width="254" height="20" transform="rotate(-90 440 326)" fill="#C4B9AA" fill-opacity="0.3"/>
<path d="M460 336C460 341.523 455.523 346 450 346L210 346L210 326L460 326L460 336Z" fill="#C4B9AA" fill-opacity="0.3"/>
<rect x="88" y="29" width="121" height="65" rx="9" stroke="#C4B9AA" stroke-width="2" stroke-dasharray="2 2"/>
<rect x="88" y="303" width="121" height="65" rx="9" stroke="#C4B9AA" stroke-width="2" stroke-dasharray="2 2"/>
<rect x="298" y="164" width="121" height="65" rx="9" stroke="#C4B9AA" stroke-width="2" stroke-dasharray="2 2"/>
<rect x="691" y="27" width="121" height="65" rx="9" stroke="#C4B9AA" stroke-width="2" stroke-dasharray="2 2"/>
<path d="M223.003 36.64H218.939V34.496H223.003V36.64ZM224.283 31.424H223.003V33.488H218.939V31.424H217.643V37.696H224.283V31.424ZM220.395 42.416H228.187V38.928H219.067V39.968H226.891V41.44H219.115V45.024H228.715V43.984H220.395V42.416ZM228.187 33.92V30.848H226.875V38.256H228.187V35.008H230.315V33.92H228.187ZM239.386 34.8V35.872H242.266V41.36H243.594V30.848H242.266V34.8H239.386ZM240.234 38.176C238.154 37.44 236.746 35.648 236.746 33.776V33.072H239.898V32H232.234V33.072H235.434V33.792C235.434 35.824 233.946 37.728 231.818 38.496L232.506 39.52C234.186 38.912 235.498 37.584 236.122 35.952C236.746 37.424 237.978 38.624 239.578 39.2L240.234 38.176ZM235.738 43.792V40.432H234.41V44.864H243.994V43.792H235.738ZM254.073 37.6C252.409 37.872 251.033 37.936 248.377 37.936V35.76H253.241V31.696H247.049V32.768H251.961V34.752H247.097V39.008H248.121C250.985 39.008 252.441 38.96 254.201 38.656L254.073 37.6ZM248.697 41.504H256.985V45.2H258.313V40.432H248.697V41.504ZM256.985 30.848V32.96H254.185V34.032H256.985V35.952H254.185V37.008H256.985V39.664H258.313V30.848H256.985ZM266.162 37.76C266.738 37.76 267.218 37.296 267.218 36.656C267.218 35.984 266.738 35.52 266.162 35.52C265.586 35.52 265.106 35.984 265.106 36.656C265.106 37.296 265.586 37.76 266.162 37.76ZM266.162 44.208C266.738 44.208 267.218 43.76 267.218 43.104C267.218 42.432 266.738 41.968 266.162 41.968C265.586 41.968 265.106 42.432 265.106 43.104C265.106 43.76 265.586 44.208 266.162 44.208ZM273.377 44H279.809V42.784H277.457V32.256H276.337C275.697 32.64 274.945 32.912 273.905 33.104V34.032H275.985V42.784H273.377V44ZM285.068 44.208C287.148 44.208 288.828 42.96 288.828 40.864C288.828 39.264 287.724 38.208 286.348 37.888V37.824C287.58 37.36 288.428 36.416 288.428 34.992C288.428 33.136 286.988 32.048 285.02 32.048C283.66 32.048 282.62 32.64 281.74 33.456L282.524 34.384C283.18 33.712 284.012 33.248 284.956 33.248C286.172 33.248 286.94 33.984 286.94 35.104C286.94 36.368 286.108 37.344 283.692 37.344V38.464C286.396 38.464 287.34 39.408 287.34 40.8C287.34 42.16 286.348 42.992 284.956 42.992C283.628 42.992 282.732 42.368 282.044 41.648L281.308 42.608C282.076 43.44 283.228 44.208 285.068 44.208ZM290.423 44H297.799V42.736H294.551C293.959 42.736 293.239 42.8 292.631 42.848C295.383 40.24 297.223 37.856 297.223 35.52C297.223 33.424 295.911 32.048 293.815 32.048C292.327 32.048 291.319 32.736 290.359 33.776L291.207 34.608C291.847 33.84 292.679 33.248 293.639 33.248C295.095 33.248 295.799 34.224 295.799 35.568C295.799 37.584 294.103 39.92 290.423 43.136V44ZM300.818 44.208C301.394 44.208 301.874 43.76 301.874 43.104C301.874 42.432 301.394 41.968 300.818 41.968C300.242 41.968 299.762 42.432 299.762 43.104C299.762 43.76 300.242 44.208 300.818 44.208ZM307.223 44.208C309.207 44.208 311.063 42.752 311.063 40.176C311.063 37.6 309.479 36.448 307.527 36.448C306.823 36.448 306.311 36.624 305.783 36.912L306.071 33.52H310.503V32.256H304.791L304.423 37.76L305.207 38.24C305.879 37.792 306.375 37.552 307.159 37.552C308.631 37.552 309.591 38.544 309.591 40.224C309.591 41.936 308.471 42.992 307.095 42.992C305.735 42.992 304.887 42.368 304.215 41.696L303.495 42.656C304.279 43.44 305.399 44.208 307.223 44.208ZM313.394 44H314.834V41.712L316.466 39.808L319.01 44H320.594L317.314 38.816L320.21 35.312H318.578L314.882 39.904H314.834V31.264H313.394V44ZM323.646 44H325.406L327.15 36.928C327.342 36 327.55 35.152 327.742 34.256H327.806C327.998 35.152 328.174 36 328.382 36.928L330.158 44H331.934L334.366 32.256H332.942L331.71 38.656C331.486 39.904 331.262 41.168 331.038 42.448H330.958C330.686 41.168 330.414 39.904 330.126 38.656L328.494 32.256H327.134L325.518 38.656C325.23 39.92 324.942 41.184 324.67 42.448H324.606C324.382 41.184 324.142 39.92 323.918 38.656L322.686 32.256H321.166L323.646 44Z" fill="white"/>
<path d="M298.862 147.092C301.228 146.924 302.838 146.266 303.65 145.244C304.448 146.266 306.058 146.924 308.424 147.092L308.97 145.72C306.268 145.552 305.008 144.768 304.728 143.914H308.354V142.472H304.56V141.338H302.712V142.472H298.932V143.914H302.558C302.278 144.768 301.018 145.552 298.316 145.72L298.862 147.092ZM306.226 152.02C306.226 152.594 305.372 152.846 303.622 152.846C301.872 152.846 301.018 152.594 301.018 152.02C301.018 151.432 301.872 151.194 303.622 151.194C305.372 151.194 306.226 151.432 306.226 152.02ZM309.474 148.954V147.512H297.826V148.954H302.712V149.864C300.458 150.032 299.156 150.774 299.156 152.02C299.156 153.434 300.808 154.204 303.622 154.204C306.436 154.204 308.102 153.434 308.102 152.02C308.102 150.774 306.8 150.032 304.56 149.864V148.954H309.474ZM317.621 144.642V146.14H319.637V150.718H321.485V141.31H319.637V144.642H317.621ZM318.475 147.61C316.445 146.924 315.563 145.342 315.563 143.816V143.648H318.069V142.178H311.139V143.648H313.673V143.83C313.673 145.454 312.749 147.148 310.635 147.834L311.573 149.304C313.071 148.8 314.079 147.778 314.653 146.504C315.213 147.666 316.165 148.59 317.579 149.052L318.475 147.61ZM314.835 152.51V149.934H312.987V153.98H321.779V152.51H314.835ZM330.163 147.148C328.889 147.386 327.755 147.442 325.907 147.456V146.112H329.701V142.038H324.059V143.522H327.881V144.74H324.073V148.94H325.067C327.517 148.94 328.847 148.898 330.345 148.618L330.163 147.148ZM325.543 151.306H332.515V154.218H334.363V149.836H325.543V151.306ZM332.515 141.324V143.088H330.443V144.572H332.515V145.846H330.443V147.316H332.515V149.262H334.363V141.31L332.515 141.324ZM341.3 147.876C342.042 147.876 342.588 147.302 342.588 146.546C342.588 145.776 342.042 145.202 341.3 145.202C340.572 145.202 340.026 145.776 340.026 146.546C340.026 147.302 340.572 147.876 341.3 147.876ZM341.3 153.196C342.042 153.196 342.588 152.608 342.588 151.852C342.588 151.082 342.042 150.508 341.3 150.508C340.572 150.508 340.026 151.082 340.026 151.852C340.026 152.608 340.572 153.196 341.3 153.196ZM347.905 153H354.135V151.334H352.189V142.626H350.663C350.005 143.046 349.291 143.312 348.255 143.508V144.782H350.131V151.334H347.905V153ZM356.149 153H362.379V151.334H360.433V142.626H358.907C358.249 143.046 357.535 143.312 356.499 143.508V144.782H358.375V151.334H356.149V153ZM365.695 145.902C365.695 144.628 366.325 143.998 367.095 143.998C367.977 143.998 368.691 144.698 368.873 146.574C368.397 147.372 367.739 147.694 367.165 147.694C366.269 147.694 365.695 147.12 365.695 145.902ZM366.815 153.196C368.873 153.196 370.791 151.502 370.791 147.582C370.791 143.984 369.027 142.444 367.067 142.444C365.289 142.444 363.805 143.774 363.805 145.902C363.805 148.1 365.051 149.164 366.773 149.164C367.473 149.164 368.355 148.744 368.901 148.044C368.803 150.634 367.851 151.516 366.689 151.516C366.073 151.516 365.443 151.194 365.065 150.774L363.973 152.02C364.589 152.65 365.527 153.196 366.815 153.196ZM372.595 153H374.625V151.012L375.731 149.752L377.635 153H379.861L376.921 148.394L379.609 145.16H377.355L374.681 148.534H374.625V141.828H372.595V153ZM382.22 153H384.754L385.888 147.876C386.056 147.064 386.196 146.266 386.336 145.468H386.392C386.518 146.266 386.672 147.064 386.84 147.876L388.002 153H390.578L392.496 142.626H390.536L389.71 147.694C389.556 148.772 389.402 149.878 389.248 150.998H389.178C388.954 149.878 388.744 148.758 388.52 147.694L387.33 142.626H385.552L384.348 147.694C384.124 148.772 383.9 149.878 383.69 150.998H383.634C383.48 149.878 383.312 148.786 383.158 147.694L382.332 142.626H380.232L382.22 153Z" fill="#F08300"/>
<path d="M691.638 10.092C694.004 9.924 695.614 9.266 696.426 8.244C697.224 9.266 698.834 9.924 701.2 10.092L701.746 8.72C699.044 8.552 697.784 7.768 697.504 6.914H701.13V5.472H697.336V4.338H695.488V5.472H691.708V6.914H695.334C695.054 7.768 693.794 8.552 691.092 8.72L691.638 10.092ZM699.002 15.02C699.002 15.594 698.148 15.846 696.398 15.846C694.648 15.846 693.794 15.594 693.794 15.02C693.794 14.432 694.648 14.194 696.398 14.194C698.148 14.194 699.002 14.432 699.002 15.02ZM702.25 11.954V10.512H690.602V11.954H695.488V12.864C693.234 13.032 691.932 13.774 691.932 15.02C691.932 16.434 693.584 17.204 696.398 17.204C699.212 17.204 700.878 16.434 700.878 15.02C700.878 13.774 699.576 13.032 697.336 12.864V11.954H702.25ZM710.397 7.642V9.14H712.413V13.718H714.261V4.31H712.413V7.642H710.397ZM711.251 10.61C709.221 9.924 708.339 8.342 708.339 6.816V6.648H710.845V5.178H703.915V6.648H706.449V6.83C706.449 8.454 705.525 10.148 703.411 10.834L704.349 12.304C705.847 11.8 706.855 10.778 707.429 9.504C707.989 10.666 708.941 11.59 710.355 12.052L711.251 10.61ZM707.611 15.51V12.934H705.763V16.98H714.555V15.51H707.611ZM722.94 10.148C721.666 10.386 720.532 10.442 718.684 10.456V9.112H722.478V5.038H716.836V6.522H720.658V7.74H716.85V11.94H717.844C720.294 11.94 721.624 11.898 723.122 11.618L722.94 10.148ZM718.32 14.306H725.292V17.218H727.14V12.836H718.32V14.306ZM725.292 4.324V6.088H723.22V7.572H725.292V8.846H723.22V10.316H725.292V12.262H727.14V4.31L725.292 4.324ZM734.077 10.876C734.819 10.876 735.365 10.302 735.365 9.546C735.365 8.776 734.819 8.202 734.077 8.202C733.349 8.202 732.803 8.776 732.803 9.546C732.803 10.302 733.349 10.876 734.077 10.876ZM734.077 16.196C734.819 16.196 735.365 15.608 735.365 14.852C735.365 14.082 734.819 13.508 734.077 13.508C733.349 13.508 732.803 14.082 732.803 14.852C732.803 15.608 733.349 16.196 734.077 16.196ZM740.681 16H746.911V14.334H744.965V5.626H743.439C742.781 6.046 742.067 6.312 741.031 6.508V7.782H742.907V14.334H740.681V16ZM748.925 16H755.155V14.334H753.209V5.626H751.683C751.025 6.046 750.311 6.312 749.275 6.508V7.782H751.151V14.334H748.925V16ZM758.471 8.902C758.471 7.628 759.101 6.998 759.871 6.998C760.753 6.998 761.467 7.698 761.649 9.574C761.173 10.372 760.515 10.694 759.941 10.694C759.045 10.694 758.471 10.12 758.471 8.902ZM759.591 16.196C761.649 16.196 763.567 14.502 763.567 10.582C763.567 6.984 761.803 5.444 759.843 5.444C758.065 5.444 756.581 6.774 756.581 8.902C756.581 11.1 757.827 12.164 759.549 12.164C760.249 12.164 761.131 11.744 761.677 11.044C761.579 13.634 760.627 14.516 759.465 14.516C758.849 14.516 758.219 14.194 757.841 13.774L756.749 15.02C757.365 15.65 758.303 16.196 759.591 16.196ZM765.372 16H767.402V14.012L768.508 12.752L770.412 16H772.638L769.698 11.394L772.386 8.16H770.132L767.458 11.534H767.402V4.828H765.372V16ZM774.996 16H777.53L778.664 10.876C778.832 10.064 778.972 9.266 779.112 8.468H779.168C779.294 9.266 779.448 10.064 779.616 10.876L780.778 16H783.354L785.272 5.626H783.312L782.486 10.694C782.332 11.772 782.178 12.878 782.024 13.998H781.954C781.73 12.878 781.52 11.758 781.296 10.694L780.106 5.626H778.328L777.124 10.694C776.9 11.772 776.676 12.878 776.466 13.998H776.41C776.256 12.878 776.088 11.786 775.934 10.694L775.108 5.626H773.008L774.996 16Z" fill="#F08300"/>
<path d="M88.638 286.092C91.004 285.924 92.614 285.266 93.426 284.244C94.224 285.266 95.834 285.924 98.2 286.092L98.746 284.72C96.044 284.552 94.784 283.768 94.504 282.914H98.13V281.472H94.336V280.338H92.488V281.472H88.708V282.914H92.334C92.054 283.768 90.794 284.552 88.092 284.72L88.638 286.092ZM96.002 291.02C96.002 291.594 95.148 291.846 93.398 291.846C91.648 291.846 90.794 291.594 90.794 291.02C90.794 290.432 91.648 290.194 93.398 290.194C95.148 290.194 96.002 290.432 96.002 291.02ZM99.25 287.954V286.512H87.602V287.954H92.488V288.864C90.234 289.032 88.932 289.774 88.932 291.02C88.932 292.434 90.584 293.204 93.398 293.204C96.212 293.204 97.878 292.434 97.878 291.02C97.878 289.774 96.576 289.032 94.336 288.864V287.954H99.25ZM107.397 283.642V285.14H109.413V289.718H111.261V280.31H109.413V283.642H107.397ZM108.251 286.61C106.221 285.924 105.339 284.342 105.339 282.816V282.648H107.845V281.178H100.915V282.648H103.449V282.83C103.449 284.454 102.525 286.148 100.411 286.834L101.349 288.304C102.847 287.8 103.855 286.778 104.429 285.504C104.989 286.666 105.941 287.59 107.355 288.052L108.251 286.61ZM104.611 291.51V288.934H102.763V292.98H111.555V291.51H104.611ZM119.156 291.818C117.434 291.818 116.552 291.524 116.552 290.866C116.552 290.208 117.434 289.928 119.156 289.928C120.878 289.928 121.76 290.208 121.76 290.866C121.76 291.524 120.878 291.818 119.156 291.818ZM119.156 288.528C116.37 288.528 114.69 289.368 114.69 290.866C114.69 292.364 116.37 293.218 119.156 293.218C121.942 293.218 123.636 292.364 123.636 290.866C123.636 289.368 121.942 288.528 119.156 288.528ZM117.826 285.35C118.246 285.406 118.694 285.434 119.184 285.434C119.66 285.434 120.108 285.406 120.514 285.364V286.428H117.826V285.35ZM119.184 281.906C120.948 281.906 121.956 282.256 121.956 282.984C121.956 283.684 120.948 284.048 119.184 284.048C117.434 284.048 116.426 283.684 116.426 282.984C116.426 282.256 117.434 281.906 119.184 281.906ZM122.362 286.428V284.888C123.314 284.468 123.86 283.824 123.86 282.984C123.86 281.444 122.04 280.506 119.184 280.506C116.342 280.506 114.522 281.444 114.522 282.984C114.522 283.81 115.054 284.454 115.978 284.874V286.428H113.36V287.884H125.008V286.428H122.362ZM126.701 283.572V287.548H127.807C130.383 287.548 132.021 287.492 133.813 287.156L133.659 285.672C132.049 285.966 130.635 286.05 128.535 286.064V284.944H132.567V281.066H126.687V282.55H130.747V283.572H126.701ZM132.147 291.804C130.467 291.804 129.599 291.482 129.599 290.768C129.599 290.054 130.467 289.732 132.147 289.732C133.827 289.732 134.695 290.054 134.695 290.768C134.695 291.482 133.827 291.804 132.147 291.804ZM132.147 288.318C129.459 288.318 127.779 289.214 127.779 290.768C127.779 292.308 129.459 293.218 132.147 293.218C134.835 293.218 136.515 292.308 136.515 290.768C136.515 289.214 134.835 288.318 132.147 288.318ZM138.097 283.544V282.046H136.389V280.31H134.541V288.08H136.389V286.26H138.097V284.762H136.389V283.544H138.097ZM143.956 286.876C144.698 286.876 145.244 286.302 145.244 285.546C145.244 284.776 144.698 284.202 143.956 284.202C143.228 284.202 142.682 284.776 142.682 285.546C142.682 286.302 143.228 286.876 143.956 286.876ZM143.956 292.196C144.698 292.196 145.244 291.608 145.244 290.852C145.244 290.082 144.698 289.508 143.956 289.508C143.228 289.508 142.682 290.082 142.682 290.852C142.682 291.608 143.228 292.196 143.956 292.196ZM153.724 286.932C154.62 286.932 155.208 287.506 155.208 288.724C155.208 289.998 154.564 290.642 153.794 290.642C152.926 290.642 152.226 289.914 152.03 288.024C152.506 287.24 153.164 286.932 153.724 286.932ZM153.836 292.196C155.6 292.196 157.084 290.852 157.084 288.724C157.084 286.512 155.852 285.476 154.116 285.476C153.444 285.476 152.548 285.896 151.988 286.596C152.072 283.992 153.052 283.096 154.242 283.096C154.844 283.096 155.474 283.432 155.838 283.852L156.93 282.62C156.3 281.976 155.39 281.444 154.116 281.444C152.03 281.444 150.112 283.096 150.112 286.96C150.112 290.614 151.862 292.196 153.836 292.196ZM158.258 292H165.202V290.264H162.962C162.472 290.264 161.786 290.32 161.268 290.376C163.158 288.528 164.712 286.512 164.712 284.636C164.712 282.704 163.41 281.444 161.45 281.444C160.036 281.444 159.112 281.99 158.16 283.012L159.28 284.132C159.812 283.558 160.428 283.068 161.184 283.068C162.178 283.068 162.738 283.698 162.738 284.748C162.738 286.344 161.072 288.29 158.258 290.81V292ZM169.764 292.196C171.682 292.196 173.39 290.866 173.39 288.556C173.39 286.302 171.934 285.266 170.198 285.266C169.722 285.266 169.372 285.364 168.952 285.56L169.148 283.362H172.914V281.626H167.37L167.09 286.666L168.028 287.282C168.63 286.89 168.966 286.736 169.582 286.736C170.632 286.736 171.332 287.408 171.332 288.612C171.332 289.83 170.576 290.516 169.498 290.516C168.532 290.516 167.804 290.04 167.216 289.466L166.264 290.782C167.034 291.552 168.126 292.196 169.764 292.196ZM176.413 292.196C177.155 292.196 177.701 291.608 177.701 290.852C177.701 290.082 177.155 289.508 176.413 289.508C175.685 289.508 175.139 290.082 175.139 290.852C175.139 291.608 175.685 292.196 176.413 292.196ZM183.009 286.932C183.905 286.932 184.493 287.506 184.493 288.724C184.493 289.998 183.849 290.642 183.079 290.642C182.211 290.642 181.511 289.914 181.315 288.024C181.791 287.24 182.449 286.932 183.009 286.932ZM183.121 292.196C184.885 292.196 186.369 290.852 186.369 288.724C186.369 286.512 185.137 285.476 183.401 285.476C182.729 285.476 181.833 285.896 181.273 286.596C181.357 283.992 182.337 283.096 183.527 283.096C184.129 283.096 184.759 283.432 185.123 283.852L186.215 282.62C185.585 281.976 184.675 281.444 183.401 281.444C181.315 281.444 179.397 283.096 179.397 286.96C179.397 290.614 181.147 292.196 183.121 292.196ZM188.047 292H190.077V290.012L191.183 288.752L193.087 292H195.313L192.373 287.394L195.061 284.16H192.807L190.133 287.534H190.077V280.828H188.047V292ZM197.672 292H200.206L201.34 286.876C201.508 286.064 201.648 285.266 201.788 284.468H201.844C201.97 285.266 202.124 286.064 202.292 286.876L203.454 292H206.03L207.948 281.626H205.988L205.162 286.694C205.008 287.772 204.854 288.878 204.7 289.998H204.63C204.406 288.878 204.196 287.758 203.972 286.694L202.782 281.626H201.004L199.8 286.694C199.576 287.772 199.352 288.878 199.142 289.998H199.086C198.932 288.878 198.764 287.786 198.61 286.694L197.784 281.626H195.684L197.672 292ZM209.335 292H211.393V286.61C211.967 286.036 212.373 285.728 213.017 285.728C213.787 285.728 214.123 286.148 214.123 287.366V292H216.181V287.114C216.181 285.14 215.453 283.964 213.759 283.964C212.695 283.964 211.925 284.524 211.295 285.112L211.393 283.642V280.828H209.335V292Z" fill="#F08300"/>
<path d="M92.334 11.084H89.8V9.796H92.334V11.084ZM94.154 6.87H92.334V8.41H89.8V6.87H87.98V12.526H94.154V6.87ZM91.088 16.866H97.752V13.366H89.24V14.766H95.932V15.55H89.254V19.106H98.13V17.678H91.088V16.866ZM97.752 8.802V6.31H95.904V12.862H97.752V10.3H99.446V8.802H97.752ZM107.397 9.642V11.14H109.413V15.718H111.261V6.31H109.413V9.642H107.397ZM108.251 12.61C106.221 11.924 105.339 10.342 105.339 8.816V8.648H107.845V7.178H100.915V8.648H103.449V8.83C103.449 10.454 102.525 12.148 100.411 12.834L101.349 14.304C102.847 13.8 103.855 12.778 104.429 11.504C104.989 12.666 105.941 13.59 107.355 14.052L108.251 12.61ZM104.611 17.51V14.934H102.763V18.98H111.555V17.51H104.611ZM119.156 17.818C117.434 17.818 116.552 17.524 116.552 16.866C116.552 16.208 117.434 15.928 119.156 15.928C120.878 15.928 121.76 16.208 121.76 16.866C121.76 17.524 120.878 17.818 119.156 17.818ZM119.156 14.528C116.37 14.528 114.69 15.368 114.69 16.866C114.69 18.364 116.37 19.218 119.156 19.218C121.942 19.218 123.636 18.364 123.636 16.866C123.636 15.368 121.942 14.528 119.156 14.528ZM117.826 11.35C118.246 11.406 118.694 11.434 119.184 11.434C119.66 11.434 120.108 11.406 120.514 11.364V12.428H117.826V11.35ZM119.184 7.906C120.948 7.906 121.956 8.256 121.956 8.984C121.956 9.684 120.948 10.048 119.184 10.048C117.434 10.048 116.426 9.684 116.426 8.984C116.426 8.256 117.434 7.906 119.184 7.906ZM122.362 12.428V10.888C123.314 10.468 123.86 9.824 123.86 8.984C123.86 7.444 122.04 6.506 119.184 6.506C116.342 6.506 114.522 7.444 114.522 8.984C114.522 9.81 115.054 10.454 115.978 10.874V12.428H113.36V13.884H125.008V12.428H122.362ZM126.701 9.572V13.548H127.807C130.383 13.548 132.021 13.492 133.813 13.156L133.659 11.672C132.049 11.966 130.635 12.05 128.535 12.064V10.944H132.567V7.066H126.687V8.55H130.747V9.572H126.701ZM132.147 17.804C130.467 17.804 129.599 17.482 129.599 16.768C129.599 16.054 130.467 15.732 132.147 15.732C133.827 15.732 134.695 16.054 134.695 16.768C134.695 17.482 133.827 17.804 132.147 17.804ZM132.147 14.318C129.459 14.318 127.779 15.214 127.779 16.768C127.779 18.308 129.459 19.218 132.147 19.218C134.835 19.218 136.515 18.308 136.515 16.768C136.515 15.214 134.835 14.318 132.147 14.318ZM138.097 9.544V8.046H136.389V6.31H134.541V14.08H136.389V12.26H138.097V10.762H136.389V9.544H138.097ZM143.956 12.876C144.698 12.876 145.244 12.302 145.244 11.546C145.244 10.776 144.698 10.202 143.956 10.202C143.228 10.202 142.682 10.776 142.682 11.546C142.682 12.302 143.228 12.876 143.956 12.876ZM143.956 18.196C144.698 18.196 145.244 17.608 145.244 16.852C145.244 16.082 144.698 15.508 143.956 15.508C143.228 15.508 142.682 16.082 142.682 16.852C142.682 17.608 143.228 18.196 143.956 18.196ZM151.708 13.744L153.318 11.168C153.612 10.608 153.892 10.034 154.144 9.474H154.2C154.172 10.09 154.13 11.028 154.13 11.63V13.744H151.708ZM154.13 18H156.048V15.312H157.266V13.744H156.048V7.626H153.57L149.706 13.912V15.312H154.13V18ZM158.804 18H165.034V16.334H163.088V7.626H161.562C160.904 8.046 160.19 8.312 159.154 8.508V9.782H161.03V16.334H158.804V18ZM168.196 13.744L169.806 11.168C170.1 10.608 170.38 10.034 170.632 9.474H170.688C170.66 10.09 170.618 11.028 170.618 11.63V13.744H168.196ZM170.618 18H172.536V15.312H173.754V13.744H172.536V7.626H170.058L166.194 13.912V15.312H170.618V18ZM176.413 18.196C177.155 18.196 177.701 17.608 177.701 16.852C177.701 16.082 177.155 15.508 176.413 15.508C175.685 15.508 175.139 16.082 175.139 16.852C175.139 17.608 175.685 18.196 176.413 18.196ZM180.993 13.744L182.603 11.168C182.897 10.608 183.177 10.034 183.429 9.474H183.485C183.457 10.09 183.415 11.028 183.415 11.63V13.744H180.993ZM183.415 18H185.333V15.312H186.551V13.744H185.333V7.626H182.855L178.991 13.912V15.312H183.415V18ZM188.047 18H190.077V16.012L191.183 14.752L193.087 18H195.313L192.373 13.394L195.061 10.16H192.807L190.133 13.534H190.077V6.828H188.047V18ZM197.672 18H200.206L201.34 12.876C201.508 12.064 201.648 11.266 201.788 10.468H201.844C201.97 11.266 202.124 12.064 202.292 12.876L203.454 18H206.03L207.948 7.626H205.988L205.162 12.694C205.008 13.772 204.854 14.878 204.7 15.998H204.63C204.406 14.878 204.196 13.758 203.972 12.694L202.782 7.626H201.004L199.8 12.694C199.576 13.772 199.352 14.878 199.142 15.998H199.086C198.932 14.878 198.764 13.786 198.61 12.694L197.784 7.626H195.684L197.672 18Z" fill="#F08300"/>
<path d="M570.443 32.784C570.443 33.904 570.443 34.96 570.059 36.432L571.339 36.576C571.739 35.104 571.739 33.936 571.739 32.784V31.568H561.963V32.624H570.443V32.784ZM566.843 44.144C564.603 44.144 563.163 43.536 563.163 42.544C563.163 41.52 564.603 40.912 566.843 40.912C569.099 40.912 570.539 41.52 570.539 42.544C570.539 43.536 569.099 44.144 566.843 44.144ZM566.843 39.904C563.786 39.904 561.851 40.88 561.851 42.544C561.851 44.176 563.786 45.168 566.843 45.168C569.899 45.168 571.851 44.176 571.851 42.544C571.851 40.88 569.899 39.904 566.843 39.904ZM567.051 37.52V34.768H565.739V37.52H560.443V38.576H573.355V37.52H567.051ZM585.161 43.936H578.105V41.968H585.161V43.936ZM585.161 40.944H578.105V39.056H576.809V44.992H586.457V39.056H585.161V40.944ZM586.089 36.688C586.473 34.912 586.473 33.632 586.473 32.528V31.488H576.777V32.56H585.177C585.177 33.648 585.177 34.928 584.777 36.688H575.113V37.76H588.153V36.688H586.089ZM597.464 34.8V35.872H600.344V41.36H601.672V30.848H600.344V34.8H597.464ZM598.312 38.176C596.232 37.44 594.824 35.648 594.824 33.776V33.072H597.976V32H590.312V33.072H593.512V33.792C593.512 35.824 592.024 37.728 589.896 38.496L590.584 39.52C592.264 38.912 593.576 37.584 594.2 35.952C594.824 37.424 596.056 38.624 597.656 39.2L598.312 38.176ZM593.816 43.792V40.432H592.488V44.864H602.072V43.792H593.816ZM612.151 37.6C610.487 37.872 609.111 37.936 606.455 37.936V35.76H611.319V31.696H605.127V32.768H610.039V34.752H605.175V39.008H606.199C609.063 39.008 610.519 38.96 612.279 38.656L612.151 37.6ZM606.775 41.504H615.063V45.2H616.391V40.432H606.775V41.504ZM615.063 30.848V32.96H612.263V34.032H615.063V35.952H612.263V37.008H615.063V39.664H616.391V30.848H615.063ZM624.24 37.76C624.816 37.76 625.296 37.296 625.296 36.656C625.296 35.984 624.816 35.52 624.24 35.52C623.664 35.52 623.184 35.984 623.184 36.656C623.184 37.296 623.664 37.76 624.24 37.76ZM624.24 44.208C624.816 44.208 625.296 43.76 625.296 43.104C625.296 42.432 624.816 41.968 624.24 41.968C623.664 41.968 623.184 42.432 623.184 43.104C623.184 43.76 623.664 44.208 624.24 44.208ZM631.455 44H637.887V42.784H635.535V32.256H634.415C633.775 32.64 633.023 32.912 631.983 33.104V34.032H634.063V42.784H631.455V44ZM643.146 44.208C645.226 44.208 646.906 42.96 646.906 40.864C646.906 39.264 645.802 38.208 644.426 37.888V37.824C645.658 37.36 646.506 36.416 646.506 34.992C646.506 33.136 645.066 32.048 643.098 32.048C641.738 32.048 640.698 32.64 639.818 33.456L640.602 34.384C641.258 33.712 642.09 33.248 643.034 33.248C644.25 33.248 645.018 33.984 645.018 35.104C645.018 36.368 644.186 37.344 641.77 37.344V38.464C644.474 38.464 645.418 39.408 645.418 40.8C645.418 42.16 644.426 42.992 643.034 42.992C641.706 42.992 640.81 42.368 640.122 41.648L639.386 42.608C640.154 43.44 641.306 44.208 643.146 44.208ZM650.021 44.208C650.597 44.208 651.077 43.76 651.077 43.104C651.077 42.432 650.597 41.968 650.021 41.968C649.445 41.968 648.965 42.432 648.965 43.104C648.965 43.76 649.445 44.208 650.021 44.208ZM656.474 44.208C658.554 44.208 660.234 42.96 660.234 40.864C660.234 39.264 659.13 38.208 657.754 37.888V37.824C658.986 37.36 659.834 36.416 659.834 34.992C659.834 33.136 658.394 32.048 656.426 32.048C655.066 32.048 654.026 32.64 653.146 33.456L653.93 34.384C654.586 33.712 655.418 33.248 656.362 33.248C657.578 33.248 658.346 33.984 658.346 35.104C658.346 36.368 657.514 37.344 655.098 37.344V38.464C657.802 38.464 658.746 39.408 658.746 40.8C658.746 42.16 657.754 42.992 656.362 42.992C655.034 42.992 654.138 42.368 653.45 41.648L652.714 42.608C653.482 43.44 654.634 44.208 656.474 44.208ZM662.597 44H664.037V41.712L665.669 39.808L668.213 44H669.797L666.517 38.816L669.413 35.312H667.781L664.085 39.904H664.037V31.264H662.597V44ZM672.849 44H674.609L676.353 36.928C676.545 36 676.753 35.152 676.945 34.256H677.009C677.201 35.152 677.377 36 677.585 36.928L679.361 44H681.137L683.569 32.256H682.145L680.913 38.656C680.689 39.904 680.465 41.168 680.241 42.448H680.161C679.889 41.168 679.617 39.904 679.329 38.656L677.697 32.256H676.337L674.721 38.656C674.433 39.92 674.145 41.184 673.873 42.448H673.809C673.585 41.184 673.345 39.92 673.121 38.656L671.889 32.256H670.369L672.849 44Z" fill="white"/>
<path d="M92.616 389.528H89.608V385.736H92.616V389.528ZM92.616 384.696H89.608V381.192H88.36V390.584H93.848V381.192H92.616V384.696ZM98.792 379.832V385.512H96.856V380.152H95.624V393.48H96.856V386.584H98.792V394.184H100.04V379.832H98.792ZM104.535 386.232H109.239V385.176H104.535V382.216H109.863V381.128H103.223V390.744H104.327C107.063 390.744 108.807 390.664 110.887 390.296L110.743 389.224C108.791 389.576 107.127 389.672 104.535 389.672V386.232ZM113.079 379.816V385.24H110.119V386.328H113.079V394.2H114.391V379.816H113.079ZM119.43 386.28H124.726V381.16H118.07V382.232H123.398V385.224H118.118V390.728H119.302C121.766 390.728 123.942 390.632 126.534 390.2L126.406 389.128C123.894 389.528 121.782 389.64 119.43 389.64V386.28ZM127.75 379.816V394.2H129.062V379.816H127.75ZM138.558 389.72H137.246V393.864H147.118V392.792H138.558V389.72ZM138.366 383.128C138.366 381.992 139.806 381.32 142.078 381.32C144.318 381.32 145.758 381.992 145.758 383.128C145.758 384.264 144.318 384.92 142.078 384.92C139.806 384.92 138.366 384.264 138.366 383.128ZM142.734 387.464V385.96C145.406 385.816 147.102 384.776 147.102 383.128C147.102 381.336 145.134 380.264 142.078 380.264C138.99 380.264 137.022 381.336 137.022 383.128C137.022 384.792 138.718 385.816 141.422 385.96V387.464H135.582V388.536H148.542V387.464H142.734ZM157.453 391.288V387.608H161.821V386.552H153.261V382.056H161.677V380.984H151.949V387.608H156.125V391.288H150.285V392.376H163.325V391.288H157.453ZM169.974 386.76C170.55 386.76 171.03 386.296 171.03 385.656C171.03 384.984 170.55 384.52 169.974 384.52C169.398 384.52 168.918 384.984 168.918 385.656C168.918 386.296 169.398 386.76 169.974 386.76ZM169.974 393.208C170.55 393.208 171.03 392.76 171.03 392.104C171.03 391.432 170.55 390.968 169.974 390.968C169.398 390.968 168.918 391.432 168.918 392.104C168.918 392.76 169.398 393.208 169.974 393.208ZM176.485 393H183.861V391.736H180.613C180.021 391.736 179.301 391.8 178.693 391.848C181.445 389.24 183.285 386.856 183.285 384.52C183.285 382.424 181.973 381.048 179.877 381.048C178.389 381.048 177.381 381.736 176.421 382.776L177.269 383.608C177.909 382.84 178.741 382.248 179.701 382.248C181.157 382.248 181.861 383.224 181.861 384.568C181.861 386.584 180.165 388.92 176.485 392.136V393ZM188.88 393.208C190.96 393.208 192.64 391.96 192.64 389.864C192.64 388.264 191.536 387.208 190.16 386.888V386.824C191.392 386.36 192.24 385.416 192.24 383.992C192.24 382.136 190.8 381.048 188.832 381.048C187.472 381.048 186.432 381.64 185.552 382.456L186.336 383.384C186.992 382.712 187.824 382.248 188.768 382.248C189.984 382.248 190.752 382.984 190.752 384.104C190.752 385.368 189.92 386.344 187.504 386.344V387.464C190.208 387.464 191.152 388.408 191.152 389.8C191.152 391.16 190.16 391.992 188.768 391.992C187.44 391.992 186.544 391.368 185.856 390.648L185.12 391.608C185.888 392.44 187.04 393.208 188.88 393.208ZM195.755 393.208C196.331 393.208 196.811 392.76 196.811 392.104C196.811 391.432 196.331 390.968 195.755 390.968C195.179 390.968 194.699 391.432 194.699 392.104C194.699 392.76 195.179 393.208 195.755 393.208ZM198.688 393H206.064V391.736H202.816C202.224 391.736 201.504 391.8 200.896 391.848C203.648 389.24 205.488 386.856 205.488 384.52C205.488 382.424 204.176 381.048 202.08 381.048C200.592 381.048 199.584 381.736 198.624 382.776L199.472 383.608C200.112 382.84 200.944 382.248 201.904 382.248C203.36 382.248 204.064 383.224 204.064 384.568C204.064 386.584 202.368 388.92 198.688 392.136V393ZM211.035 393.208C213.019 393.208 214.875 391.752 214.875 389.176C214.875 386.6 213.291 385.448 211.339 385.448C210.635 385.448 210.123 385.624 209.595 385.912L209.883 382.52H214.315V381.256H208.603L208.235 386.76L209.019 387.24C209.691 386.792 210.187 386.552 210.971 386.552C212.443 386.552 213.403 387.544 213.403 389.224C213.403 390.936 212.283 391.992 210.907 391.992C209.547 391.992 208.699 391.368 208.027 390.696L207.307 391.656C208.091 392.44 209.211 393.208 211.035 393.208ZM218.742 385.368C219.942 385.368 220.982 384.456 220.982 383.08C220.982 381.672 219.942 380.792 218.742 380.792C217.526 380.792 216.486 381.672 216.486 383.08C216.486 384.456 217.526 385.368 218.742 385.368ZM218.742 384.536C217.942 384.536 217.398 383.928 217.398 383.08C217.398 382.216 217.942 381.624 218.742 381.624C219.526 381.624 220.086 382.216 220.086 383.08C220.086 383.928 219.526 384.536 218.742 384.536ZM227.494 393.208C228.982 393.208 230.134 392.616 231.062 391.528L230.182 390.584C229.446 391.416 228.646 391.864 227.526 391.864C225.318 391.864 223.926 390.04 223.926 387.128C223.926 384.232 225.382 382.424 227.59 382.424C228.566 382.424 229.302 382.824 229.926 383.48L230.79 382.52C230.102 381.784 228.966 381.08 227.574 381.08C224.566 381.08 222.342 383.368 222.342 387.16C222.342 390.968 224.534 393.208 227.494 393.208ZM92.616 412.528H89.608V408.736H92.616V412.528ZM92.616 407.696H89.608V404.192H88.36V413.584H93.848V404.192H92.616V407.696ZM98.792 402.832V408.512H96.856V403.152H95.624V416.48H96.856V409.584H98.792V417.184H100.04V402.832H98.792ZM104.535 409.232H109.239V408.176H104.535V405.216H109.863V404.128H103.223V413.744H104.327C107.063 413.744 108.807 413.664 110.887 413.296L110.743 412.224C108.791 412.576 107.127 412.672 104.535 412.672V409.232ZM113.079 402.816V408.24H110.119V409.328H113.079V417.2H114.391V402.816H113.079ZM119.43 409.28H124.726V404.16H118.07V405.232H123.398V408.224H118.118V413.728H119.302C121.766 413.728 123.942 413.632 126.534 413.2L126.406 412.128C123.894 412.528 121.782 412.64 119.43 412.64V409.28ZM127.75 402.816V417.2H129.062V402.816H127.75ZM143.764 402.848H142.452V410.272H143.764V402.848ZM140.692 408.832C138.564 408.128 137.06 406.336 137.06 404.352V403.264H135.748V404.352C135.748 406.432 134.26 408.352 132.1 409.104L132.772 410.128C134.468 409.52 135.796 408.208 136.42 406.56C137.076 408.08 138.388 409.28 140.036 409.856L140.692 408.832ZM135.812 415.984V414.448H143.78V410.992H134.484V412.016H142.484V413.456H134.516V417.024H144.26V415.984H135.812ZM153.277 412.72H151.965V416.864H161.837V415.792H153.277V412.72ZM153.085 406.128C153.085 404.992 154.525 404.32 156.797 404.32C159.037 404.32 160.477 404.992 160.477 406.128C160.477 407.264 159.037 407.92 156.797 407.92C154.525 407.92 153.085 407.264 153.085 406.128ZM157.453 410.464V408.96C160.125 408.816 161.821 407.776 161.821 406.128C161.821 404.336 159.853 403.264 156.797 403.264C153.709 403.264 151.741 404.336 151.741 406.128C151.741 407.792 153.437 408.816 156.141 408.96V410.464H150.301V411.536H163.261V410.464H157.453ZM172.172 414.288V410.608H176.54V409.552H167.98V405.056H176.396V403.984H166.668V410.608H170.844V414.288H165.004V415.376H178.044V414.288H172.172ZM184.693 409.76C185.269 409.76 185.749 409.296 185.749 408.656C185.749 407.984 185.269 407.52 184.693 407.52C184.117 407.52 183.637 407.984 183.637 408.656C183.637 409.296 184.117 409.76 184.693 409.76ZM184.693 416.208C185.269 416.208 185.749 415.76 185.749 415.104C185.749 414.432 185.269 413.968 184.693 413.968C184.117 413.968 183.637 414.432 183.637 415.104C183.637 415.76 184.117 416.208 184.693 416.208ZM191.204 416H198.58V414.736H195.332C194.74 414.736 194.02 414.8 193.412 414.848C196.164 412.24 198.004 409.856 198.004 407.52C198.004 405.424 196.692 404.048 194.596 404.048C193.108 404.048 192.1 404.736 191.14 405.776L191.988 406.608C192.628 405.84 193.46 405.248 194.42 405.248C195.876 405.248 196.58 406.224 196.58 407.568C196.58 409.584 194.884 411.92 191.204 415.136V416ZM200.783 416H207.215V414.784H204.863V404.256H203.743C203.103 404.64 202.351 404.912 201.311 405.104V406.032H203.391V414.784H200.783V416ZM210.474 416.208C211.05 416.208 211.53 415.76 211.53 415.104C211.53 414.432 211.05 413.968 210.474 413.968C209.898 413.968 209.418 414.432 209.418 415.104C209.418 415.76 209.898 416.208 210.474 416.208ZM215.871 416H217.391C217.567 411.408 218.079 408.672 220.831 405.152V404.256H213.487V405.52H219.167C216.879 408.72 216.063 411.552 215.871 416ZM224.586 408.368C225.786 408.368 226.826 407.456 226.826 406.08C226.826 404.672 225.786 403.792 224.586 403.792C223.37 403.792 222.33 404.672 222.33 406.08C222.33 407.456 223.37 408.368 224.586 408.368ZM224.586 407.536C223.786 407.536 223.242 406.928 223.242 406.08C223.242 405.216 223.786 404.624 224.586 404.624C225.37 404.624 225.93 405.216 225.93 406.08C225.93 406.928 225.37 407.536 224.586 407.536ZM233.338 416.208C234.826 416.208 235.978 415.616 236.906 414.528L236.026 413.584C235.29 414.416 234.49 414.864 233.37 414.864C231.162 414.864 229.77 413.04 229.77 410.128C229.77 407.232 231.226 405.424 233.434 405.424C234.41 405.424 235.146 405.824 235.77 406.48L236.634 405.52C235.946 404.784 234.81 404.08 233.418 404.08C230.41 404.08 228.186 406.368 228.186 410.16C228.186 413.968 230.378 416.208 233.338 416.208ZM92.616 435.528H89.608V431.736H92.616V435.528ZM92.616 430.696H89.608V427.192H88.36V436.584H93.848V427.192H92.616V430.696ZM98.792 425.832V431.512H96.856V426.152H95.624V439.48H96.856V432.584H98.792V440.184H100.04V425.832H98.792ZM104.535 432.232H109.239V431.176H104.535V428.216H109.863V427.128H103.223V436.744H104.327C107.063 436.744 108.807 436.664 110.887 436.296L110.743 435.224C108.791 435.576 107.127 435.672 104.535 435.672V432.232ZM113.079 425.816V431.24H110.119V432.328H113.079V440.2H114.391V425.816H113.079ZM119.43 432.28H124.726V427.16H118.07V428.232H123.398V431.224H118.118V436.728H119.302C121.766 436.728 123.942 436.632 126.534 436.2L126.406 435.128C123.894 435.528 121.782 435.64 119.43 435.64V432.28ZM127.75 425.816V440.2H129.062V425.816H127.75ZM143.764 425.848H142.452V433.272H143.764V425.848ZM140.692 431.832C138.564 431.128 137.06 429.336 137.06 427.352V426.264H135.748V427.352C135.748 429.432 134.26 431.352 132.1 432.104L132.772 433.128C134.468 432.52 135.796 431.208 136.42 429.56C137.076 431.08 138.388 432.28 140.036 432.856L140.692 431.832ZM135.812 438.984V437.448H143.78V433.992H134.484V435.016H142.484V436.456H134.516V440.024H144.26V438.984H135.812ZM162.541 430.312C159.997 429.992 157.469 428.408 157.469 426.632V425.992H156.125V426.632C156.125 428.456 153.613 429.992 151.037 430.312L151.517 431.368C153.757 431.016 155.901 429.896 156.797 428.296C157.709 429.896 159.837 431.016 162.061 431.368L162.541 430.312ZM160.285 438.936H153.229V437.112H160.285V438.936ZM160.285 436.104H153.229V434.424H151.933V439.992H161.581V434.424H160.285V436.104ZM150.285 432.376V433.432H163.277V432.376H150.285ZM172.172 437.288V433.608H176.54V432.552H167.98V428.056H176.396V426.984H166.668V433.608H170.844V437.288H165.004V438.376H178.044V437.288H172.172ZM184.693 432.76C185.269 432.76 185.749 432.296 185.749 431.656C185.749 430.984 185.269 430.52 184.693 430.52C184.117 430.52 183.637 430.984 183.637 431.656C183.637 432.296 184.117 432.76 184.693 432.76ZM184.693 439.208C185.269 439.208 185.749 438.76 185.749 438.104C185.749 437.432 185.269 436.968 184.693 436.968C184.117 436.968 183.637 437.432 183.637 438.104C183.637 438.76 184.117 439.208 184.693 439.208ZM192.34 434.6L195.012 430.6C195.348 430.024 195.668 429.448 195.956 428.872H196.02C195.988 429.48 195.94 430.424 195.94 431V434.6H192.34ZM195.94 439H197.316V435.768H198.868V434.6H197.316V427.256H195.7L190.82 434.808V435.768H195.94V439ZM201.215 434.6L203.887 430.6C204.223 430.024 204.543 429.448 204.831 428.872H204.895C204.863 429.48 204.815 430.424 204.815 431V434.6H201.215ZM204.815 439H206.191V435.768H207.743V434.6H206.191V427.256H204.575L199.695 434.808V435.768H204.815V439ZM210.474 439.208C211.05 439.208 211.53 438.76 211.53 438.104C211.53 437.432 211.05 436.968 210.474 436.968C209.898 436.968 209.418 437.432 209.418 438.104C209.418 438.76 209.898 439.208 210.474 439.208ZM216.879 439.208C218.863 439.208 220.719 437.752 220.719 435.176C220.719 432.6 219.135 431.448 217.183 431.448C216.479 431.448 215.967 431.624 215.439 431.912L215.727 428.52H220.159V427.256H214.447L214.079 432.76L214.863 433.24C215.535 432.792 216.031 432.552 216.815 432.552C218.287 432.552 219.247 433.544 219.247 435.224C219.247 436.936 218.127 437.992 216.751 437.992C215.391 437.992 214.543 437.368 213.871 436.696L213.151 437.656C213.935 438.44 215.055 439.208 216.879 439.208ZM224.858 434.456C226.474 434.456 227.53 433.096 227.53 430.728C227.53 428.376 226.474 427.048 224.858 427.048C223.258 427.048 222.202 428.376 222.202 430.728C222.202 433.096 223.258 434.456 224.858 434.456ZM224.858 433.544C223.946 433.544 223.306 432.6 223.306 430.728C223.306 428.856 223.946 427.944 224.858 427.944C225.786 427.944 226.426 428.856 226.426 430.728C226.426 432.6 225.786 433.544 224.858 433.544ZM225.21 439.208H226.186L232.666 427.048H231.674L225.21 439.208ZM233.034 439.208C234.634 439.208 235.69 437.864 235.69 435.496C235.69 433.144 234.634 431.816 233.034 431.816C231.434 431.816 230.362 433.144 230.362 435.496C230.362 437.864 231.434 439.208 233.034 439.208ZM233.034 438.312C232.106 438.312 231.482 437.368 231.482 435.496C231.482 433.624 232.106 432.712 233.034 432.712C233.946 432.712 234.586 433.624 234.586 435.496C234.586 437.368 233.946 438.312 233.034 438.312ZM91.864 462.208C94.312 462.208 95.848 460.736 95.848 458.88C95.848 457.136 94.792 456.336 93.432 455.744L91.752 455.024C90.84 454.64 89.816 454.208 89.816 453.072C89.816 452.016 90.68 451.344 92.008 451.344C93.096 451.344 93.96 451.776 94.68 452.448L95.464 451.504C94.632 450.64 93.4 450.048 92.008 450.048C89.88 450.048 88.312 451.36 88.312 453.168C88.312 454.88 89.608 455.712 90.696 456.176L92.392 456.912C93.496 457.408 94.344 457.792 94.344 458.992C94.344 460.144 93.416 460.912 91.88 460.912C90.664 460.912 89.48 460.336 88.648 459.456L87.752 460.464C88.776 461.536 90.2 462.208 91.864 462.208ZM101.395 462.208C103.523 462.208 105.427 460.544 105.427 457.664C105.427 454.768 103.523 453.088 101.395 453.088C99.2669 453.088 97.3629 454.768 97.3629 457.664C97.3629 460.544 99.2669 462.208 101.395 462.208ZM101.395 460.992C99.8909 460.992 98.8829 459.664 98.8829 457.664C98.8829 455.664 99.8909 454.304 101.395 454.304C102.899 454.304 103.923 455.664 103.923 457.664C103.923 459.664 102.899 460.992 101.395 460.992ZM112.282 462.208C113.802 462.208 114.954 461.6 115.882 460.528L115.066 459.6C114.314 460.416 113.466 460.912 112.346 460.912C110.106 460.912 108.698 459.056 108.698 456.096C108.698 453.168 110.17 451.344 112.394 451.344C113.402 451.344 114.186 451.808 114.794 452.464L115.594 451.504C114.922 450.752 113.802 450.048 112.378 450.048C109.402 450.048 107.178 452.352 107.178 456.144C107.178 459.952 109.37 462.208 112.282 462.208ZM122.255 455.76C122.831 455.76 123.311 455.296 123.311 454.656C123.311 453.984 122.831 453.52 122.255 453.52C121.679 453.52 121.199 453.984 121.199 454.656C121.199 455.296 121.679 455.76 122.255 455.76ZM122.255 462.208C122.831 462.208 123.311 461.76 123.311 461.104C123.311 460.432 122.831 459.968 122.255 459.968C121.679 459.968 121.199 460.432 121.199 461.104C121.199 461.76 121.679 462.208 122.255 462.208ZM128.767 462H136.142V460.736H132.831C132.223 460.736 131.519 460.8 130.911 460.848C133.615 458 135.567 455.872 135.567 453.728C135.567 451.712 134.255 450.384 132.159 450.384C130.671 450.384 129.663 451.072 128.703 452.112L129.551 452.928C130.191 452.176 131.023 451.568 131.983 451.568C133.439 451.568 134.143 452.496 134.143 453.792C134.143 455.664 132.207 457.712 128.767 461.136V462ZM141.114 462.208C143.098 462.208 144.954 460.816 144.954 458.352C144.954 455.888 143.37 454.768 141.418 454.768C140.714 454.768 140.202 454.96 139.674 455.248L139.962 451.84H144.394V450.592H138.682L138.314 456.08L139.098 456.576C139.77 456.128 140.266 455.872 141.049 455.872C142.522 455.872 143.482 456.816 143.482 458.4C143.482 459.984 142.362 460.992 140.986 460.992C139.626 460.992 138.778 460.368 138.106 459.696L137.386 460.656C138.17 461.44 139.289 462.208 141.114 462.208ZM149.093 457.456C150.709 457.456 151.765 456.096 151.765 453.728C151.765 451.376 150.709 450.048 149.093 450.048C147.493 450.048 146.437 451.376 146.437 453.728C146.437 456.096 147.493 457.456 149.093 457.456ZM149.093 456.544C148.181 456.544 147.541 455.6 147.541 453.728C147.541 451.856 148.181 450.944 149.093 450.944C150.021 450.944 150.661 451.856 150.661 453.728C150.661 455.6 150.021 456.544 149.093 456.544ZM149.445 462.208H150.421L156.901 450.048H155.909L149.445 462.208ZM157.269 462.208C158.869 462.208 159.925 460.864 159.925 458.496C159.925 456.144 158.869 454.816 157.269 454.816C155.669 454.816 154.597 456.144 154.597 458.496C154.597 460.864 155.669 462.208 157.269 462.208ZM157.269 461.312C156.341 461.312 155.717 460.368 155.717 458.496C155.717 456.624 156.341 455.712 157.269 455.712C158.181 455.712 158.821 456.624 158.821 458.496C158.821 460.368 158.181 461.312 157.269 461.312Z" fill="white"/>
<path d="M226 62L217 67.1962L217 56.8038L226 62Z" fill="#D9D9D9"/>
<path d="M434 336L443 330.804L443 341.196L434 336Z" fill="#D9D9D9"/>
<path d="M450 86L444.804 77L455.196 77L450 86Z" fill="#D9D9D9"/>
<path d="M246 62L237 67.1962L237 56.8038L246 62Z" fill="#D9D9D9"/>
<path d="M414 336L423 330.804L423 341.196L414 336Z" fill="#D9D9D9"/>
<path d="M450 106L444.804 97L455.196 97L450 106Z" fill="#D9D9D9"/>
<path d="M266 62L257 67.1962L257 56.8038L266 62Z" fill="#D9D9D9"/>
<path d="M394 336L403 330.804L403 341.196L394 336Z" fill="#D9D9D9"/>
<path d="M450 126L444.804 117L455.196 117L450 126Z" fill="#D9D9D9"/>
<path d="M286 62L277 67.1962L277 56.8038L286 62Z" fill="#D9D9D9"/>
<path d="M374 336L383 330.804L383 341.196L374 336Z" fill="#D9D9D9"/>
<path d="M450 146L444.804 137L455.196 137L450 146Z" fill="#D9D9D9"/>
<path d="M306 62L297 67.1962L297 56.8038L306 62Z" fill="#D9D9D9"/>
<path d="M354 336L363 330.804L363 341.196L354 336Z" fill="#D9D9D9"/>
<path d="M450 166L444.804 157L455.196 157L450 166Z" fill="#D9D9D9"/>
<path d="M326 62L317 67.1962L317 56.8038L326 62Z" fill="#D9D9D9"/>
<path d="M334 336L343 330.804L343 341.196L334 336Z" fill="#D9D9D9"/>
<path d="M450 186L444.804 177L455.196 177L450 186Z" fill="#D9D9D9"/>
<path d="M346 62L337 67.1962L337 56.8038L346 62Z" fill="#D9D9D9"/>
<path d="M314 336L323 330.804L323 341.196L314 336Z" fill="#D9D9D9"/>
<path d="M450 206L444.804 197L455.196 197L450 206Z" fill="#D9D9D9"/>
<path d="M366 62L357 67.1962L357 56.8038L366 62Z" fill="#D9D9D9"/>
<path d="M294 336L303 330.804L303 341.196L294 336Z" fill="#D9D9D9"/>
<path d="M450 226L444.804 217L455.196 217L450 226Z" fill="#D9D9D9"/>
<path d="M386 62L377 67.1962L377 56.8038L386 62Z" fill="#D9D9D9"/>
<path d="M274 336L283 330.804L283 341.196L274 336Z" fill="#D9D9D9"/>
<path d="M450 246L444.804 237L455.196 237L450 246Z" fill="#D9D9D9"/>
<path d="M406 62L397 67.1962L397 56.8038L406 62Z" fill="#D9D9D9"/>
<path d="M254 336L263 330.804L263 341.196L254 336Z" fill="#D9D9D9"/>
<path d="M450 266L444.804 257L455.196 257L450 266Z" fill="#D9D9D9"/>
<path d="M426 62L417 67.1962L417 56.8038L426 62Z" fill="#D9D9D9"/>
<path d="M234 336L243 330.804L243 341.196L234 336Z" fill="#D9D9D9"/>
<path d="M450 286L444.804 277L455.196 277L450 286Z" fill="#D9D9D9"/>
<path d="M446 62L437 67.1962L437 56.8038L446 62Z" fill="#D9D9D9"/>
<path d="M214 336L223 330.804L223 341.196L214 336Z" fill="#D9D9D9"/>
<path d="M450 306L444.804 297L455.196 297L450 306Z" fill="#D9D9D9"/>
<path d="M450 324L444.804 315L455.196 315L450 324Z" fill="#D9D9D9"/>
<path d="M466 62L457 67.1962L457 56.8038L466 62Z" fill="#D9D9D9"/>
<path d="M486 62L477 67.1962L477 56.8038L486 62Z" fill="#D9D9D9"/>
<path d="M506 62L497 67.1962L497 56.8038L506 62Z" fill="#D9D9D9"/>
<path d="M526 62L517 67.1962L517 56.8038L526 62Z" fill="#D9D9D9"/>
<path d="M546 62L537 67.1962L537 56.8038L546 62Z" fill="#D9D9D9"/>
<path d="M566 62L557 67.1962L557 56.8038L566 62Z" fill="#D9D9D9"/>
<path d="M586 62L577 67.1962L577 56.8038L586 62Z" fill="#D9D9D9"/>
<path d="M606 62L597 67.1962L597 56.8038L606 62Z" fill="#D9D9D9"/>
<path d="M626 62L617 67.1962L617 56.8038L626 62Z" fill="#D9D9D9"/>
<path d="M646 62L637 67.1962L637 56.8038L646 62Z" fill="#D9D9D9"/>
<path d="M666 62L657 67.1962L657 56.8038L666 62Z" fill="#D9D9D9"/>
<path d="M686 62L677 67.1962L677 56.8038L686 62Z" fill="#D9D9D9"/>
<path d="M71.6022 36.2347C71.2892 34.6785 69.9121 33.5555 68.2325 33.5555H21.5888C19.9978 33.5555 18.627 34.6785 18.3151 36.2347L11.7321 69.568C11.5349 70.5478 11.7892 71.5639 12.4233 72.3347C13.0574 73.1055 13.9115 73.5555 14.912 73.5555H41.5253V80.2483H36.5907C33.8511 80.2483 31.6092 82.4868 31.6092 85.2222C31.6092 86.1435 32.357 86.8899 33.2794 86.8889L56.5543 86.8715C57.4753 86.8704 58.2225 86.1246 58.2225 85.2048C58.2173 82.4618 56.0786 80.2222 53.3244 80.2222H48.2876V73.5555H74.9948C75.9957 73.5555 76.9426 73.1064 77.5768 72.3347C78.2111 71.563 78.4653 70.5472 78.268 69.568L74.9351 52.9014L71.6022 36.2347ZM65.593 40.2222L67.5961 50.2222H57.3743L56.3498 40.2222H65.593ZM51.2275 40.2222L52.2308 50.2222H37.6548L38.6848 40.2222H51.2275ZM33.5653 40.2222L32.5429 50.2222H22.3295L24.3304 40.2222H33.5653ZM18.9973 66.8889L21.3217 55.2222H32.0359L30.832 66.8889H18.9973ZM35.9648 66.8889L37.1509 55.2222H52.7684L53.9504 66.8889H35.9648ZM59.0832 66.8889L57.8834 55.2222H68.5976L70.922 66.8889H59.0832Z" fill="#635A4F"/>
<path d="M60.0001 316H13.3334C9.65152 316 6.66675 318.985 6.66675 322.667V349.333C6.66675 353.015 9.65152 356 13.3334 356H60.0001C63.682 356 66.6667 353.015 66.6667 349.333V322.667C66.6667 318.985 63.682 316 60.0001 316Z" stroke="#635A4F" stroke-width="6" stroke-linecap="round" stroke-linejoin="round"/>
<path d="M38 326L30 336H43.3333L35.3333 346M66.6667 329.333H71.6667C72.1087 329.333 72.5326 329.509 72.8452 329.821C73.1577 330.134 73.3333 330.558 73.3333 331V341C73.3333 341.442 73.1577 341.866 72.8452 342.179C72.5326 342.491 72.1087 342.667 71.6667 342.667H66.6667V329.333Z" stroke="#635A4F" stroke-width="6" stroke-linecap="round" stroke-linejoin="round"/>
<path d="M226.556 167.474C226.556 165.678 228.012 164.222 229.804 164.222H256H282.196C283.055 164.228 283.877 164.573 284.485 165.181C285.093 165.789 285.438 166.613 285.445 167.474V226.526C285.444 227.389 285.101 228.216 284.492 228.826C283.883 229.435 283.057 229.778 282.196 229.778H229.804C228.945 229.772 228.123 229.427 227.515 228.819C226.907 228.211 226.563 227.387 226.556 226.526V167.474ZM278.901 193.722V170.778H233.099V193.722H278.901ZM278.901 200.278H233.099V223.222H278.901V200.278ZM246.185 177.333H265.815V183.889H246.185V177.333ZM246.185 206.833H265.815V213.389H246.185V206.833Z" fill="#635A4F"/>
<path d="M829 91.6667L841.667 28.3333H854.333L867 91.6667" stroke="#635A4F" stroke-width="6" stroke-linecap="round" stroke-linejoin="round"/>
<path d="M833.75 37.8333H862.25" stroke="#635A4F" stroke-width="6" stroke-linecap="round"/>
<path d="M838.5 39.4166L862.25 63.1667M829 63.1667H867H829ZM833.75 64.75L865.417 83.7501L833.75 64.75ZM862.25 64.75L832.167 83.7501L862.25 64.75ZM857.5 39.4166L833.75 63.1667L857.5 39.4166Z" stroke="#635A4F" stroke-width="6" stroke-linecap="round" stroke-linejoin="round"/>
</svg>
