<svg width="50" height="50" viewBox="0 0 50 50" fill="none" xmlns="http://www.w3.org/2000/svg">
<path d="M27 24.5161C27 25.6581 26.1062 26.5806 25 26.5806C23.8937 26.5806 23 25.6581 23 24.5161V10.0645C23 8.92452 23.8937 8 25 8C26.1062 8 27 8.92452 27 10.0645V24.5161ZM14 24.5161C14 30.7871 18.925 35.871 25 35.871C31.075 35.871 36 30.7871 36 24.5161C36 21.0065 34.4562 17.8645 32.0312 15.7806C31.1812 15.0516 31.0625 13.7503 31.7687 12.8735C32.475 11.9968 33.7375 11.8774 34.5875 12.6065C37.8875 15.4452 40 19.729 40 24.4581C40 33.0645 33.2812 40 25 40C16.7188 40 10 33.0645 10 24.4581C10 19.729 12.1094 15.4452 15.4125 12.6065C16.2625 11.8774 17.525 11.9968 18.2312 12.8735C18.8812 13.7503 18.8187 15.0516 17.9687 15.7806C15.5438 17.8645 14 21.0065 14 24.5161Z" fill="white"/>
</svg>
